<?xml version="1.0" encoding="UTF-8"?>
<svg version="1.1" xmlns="http://www.w3.org/2000/svg" width="500" height="166">
<path d="M0 0 C165 0 330 0 500 0 C500 54.78 500 109.56 500 166 C335 166 170 166 0 166 C0 111.22 0 56.44 0 0 Z " fill="#FDFDFD" transform="translate(0,0)"/>
<path d="M0 0 C4.11819914 0.45004996 7.04302925 2.06199074 10.51171875 4.17578125 C11.12724609 4.53220703 11.74277344 4.88863281 12.37695312 5.25585938 C18.38740988 8.80482896 18.38740988 8.80482896 20.32421875 11.36328125 C20.70898438 14.15063477 20.70898438 14.15063477 20.73046875 17.4921875 C20.75238281 18.69166016 20.77429688 19.89113281 20.796875 21.12695312 C20.81513228 23.66341126 20.83336136 26.19986959 20.8515625 28.73632812 C20.87347656 29.93451172 20.89539063 31.13269531 20.91796875 32.3671875 C20.92505859 33.46877197 20.93214844 34.57035645 20.93945312 35.70532227 C21.06642578 36.58244873 21.19339844 37.4595752 21.32421875 38.36328125 C24.5521343 40.51522495 25.60822684 40.56414568 29.32421875 40.36328125 C29.28119629 39.56220947 29.23817383 38.7611377 29.19384766 37.93579102 C28.24979285 15.62484386 28.24979285 15.62484386 31.72949219 10.15380859 C35.05565595 6.99814567 40.55522169 3.36328125 45.32421875 3.36328125 C45.32421875 10.02994792 45.32421875 16.69661458 45.32421875 23.36328125 C45.37920532 24.3373291 45.37920532 24.3373291 45.43530273 25.33105469 C45.58170919 27.92454041 45.67163014 30.5172585 45.76171875 33.11328125 C45.82037109 34.00789063 45.87902344 34.9025 45.93945312 35.82421875 C46.10644285 42.29387795 46.10644285 42.29387795 43.95898438 45.22973633 C40.36874825 48.43580129 36.33116605 50.58056061 31.94921875 52.55078125 C28.87033151 53.88090153 28.87033151 53.88090153 26.32421875 55.36328125 C25.99421875 56.35328125 25.66421875 57.34328125 25.32421875 58.36328125 C26.64421875 58.69328125 27.96421875 59.02328125 29.32421875 59.36328125 C29.32421875 60.02328125 29.32421875 60.68328125 29.32421875 61.36328125 C30.04609375 61.65203125 30.76796875 61.94078125 31.51171875 62.23828125 C34.32421875 63.36328125 34.32421875 63.36328125 36.76171875 64.55078125 C40.20711217 65.64322307 41.84482642 65.43386351 45.32421875 64.36328125 C47.72041833 62.91651924 50.00042537 61.37139532 52.2734375 59.73828125 C54.32421875 58.36328125 54.32421875 58.36328125 57.32421875 57.36328125 C57.07671875 56.35265625 56.82921875 55.34203125 56.57421875 54.30078125 C56.5390625 52.3828125 56.5390625 52.3828125 57.32421875 50.36328125 C61.85235325 46.85518314 66.89138876 44.17422458 72.32421875 42.36328125 C72.55811569 45.57036813 72.69909403 48.7752572 72.82421875 51.98828125 C72.92476562 53.34373047 72.92476562 53.34373047 73.02734375 54.7265625 C73.2195169 61.30849283 73.2195169 61.30849283 70.76049805 64.20556641 C68.68984139 65.79406338 66.60470079 67.09657028 64.32421875 68.36328125 C63.70047363 68.73952637 63.07672852 69.11577148 62.43408203 69.50341797 C60.68808247 70.5397006 58.9217921 71.52111776 57.13671875 72.48828125 C52.88393374 74.80291178 49.10655263 77.3321426 45.32421875 80.36328125 C41.13148401 81.33833584 38.67489455 80.17000113 35.13671875 78.05078125 C34.29753906 77.509375 33.45835938 76.96796875 32.59375 76.41015625 C29.93467541 74.74545483 27.26908763 73.20382713 24.5234375 71.69140625 C23.66967529 71.21614502 22.81591309 70.74088379 21.9362793 70.2512207 C20.21289586 69.2942508 18.48394813 68.34722473 16.74926758 67.41088867 C15.94900146 66.96076416 15.14873535 66.51063965 14.32421875 66.046875 C13.60234375 65.65040771 12.88046875 65.25394043 12.13671875 64.84545898 C9.66240908 62.82208425 9.13518947 61.47364749 8.32421875 58.36328125 C8.07030721 55.20703163 8.0914012 52.07092599 8.12890625 48.90625 C8.13173615 48.0032869 8.13456604 47.10032379 8.13748169 46.16999817 C8.14864268 43.29678891 8.17373978 40.4238957 8.19921875 37.55078125 C8.20925382 35.59831181 8.21837875 33.64583746 8.2265625 31.69335938 C8.24856867 26.91654559 8.28307044 22.13996694 8.32421875 17.36328125 C4.84039459 15.96496383 4.84039459 15.96496383 1.33984375 14.609375 C-0.64945621 13.69834604 -2.09739286 12.89089039 -3.67578125 11.36328125 C-4.6897789 8.35347869 -5.02345945 5.52288317 -4.67578125 2.36328125 C-2.67578125 0.36328125 -2.67578125 0.36328125 0 0 Z " fill="#1A479D" transform="translate(31.67578125,64.63671875)"/>
<path d="M0 0 C3 1.375 3 1.375 5 3 C5 3.66 5 4.32 5 5 C5.65742187 5.23847656 6.31484375 5.47695313 6.9921875 5.72265625 C10.86294977 7.36647347 14.46478687 9.37404651 18.125 11.4375 C19.19814453 12.03014648 19.19814453 12.03014648 20.29296875 12.63476562 C20.98261719 13.02212891 21.67226562 13.40949219 22.3828125 13.80859375 C23.00559082 14.15720459 23.62836914 14.50581543 24.27001953 14.86499023 C26.17119691 16.11231928 27.5381072 17.2517478 29 19 C29.37181091 20.95956421 29.37181091 20.95956421 29.36889648 23.20849609 C29.37577988 24.05302338 29.38266327 24.89755066 29.38975525 25.76766968 C29.38359695 26.67707306 29.37743866 27.58647644 29.37109375 28.5234375 C29.3884777 30.45052259 29.40606207 32.37760589 29.42382812 34.3046875 C29.43389953 37.3418308 29.43749783 40.37885632 29.43579102 43.41601562 C29.43936314 46.34801353 29.46671667 49.27910155 29.49609375 52.2109375 C29.48791122 53.11629242 29.4797287 54.02164734 29.47129822 54.95443726 C29.52086969 59.15719302 29.63256185 61.41099537 31.90209961 65.04907227 C34.02471893 67.02298719 35.36169242 67.81125858 38.125 68.5625 C41.83859245 69.80496587 41.83859245 69.80496587 43.5 71.8125 C44.15940356 74.69739058 44.30749549 77.04804334 44 80 C42.5 82.375 42.5 82.375 41 84 C34.34076667 83.72253194 31.04742457 81.11559234 26 77 C25.00649536 76.4743042 25.00649536 76.4743042 23.99291992 75.93798828 C21.50666003 74.48244135 19.82418523 73.24383471 18 71 C16.93819877 66.41038766 17.06198494 61.94081788 17.1875 57.25 C17.21419091 54.79697839 17.22913406 52.34379145 17.23046875 49.890625 C17.25520264 48.80813477 17.27993652 47.72564453 17.30541992 46.61035156 C17.20463135 45.74893555 17.10384277 44.88751953 17 44 C14.20608611 41.70993686 14.20608611 41.70993686 11.16015625 42.12890625 C7.51852575 43.13271787 5.39709292 44.60939917 2.4375 46.9375 C-0.96101671 49.59364568 -3.91036985 51.5874876 -8 53 C-9.36009825 39.01281679 -9.36009825 39.01281679 -6.34765625 34.5546875 C-3.98578809 32.70338135 -1.68609765 31.33714963 1 30 C2.39798828 29.24976563 2.39798828 29.24976563 3.82421875 28.484375 C6.19133669 27.25522959 8.57098287 26.10041069 11 25 C4.66474745 19.7827332 0.28209299 16.40074643 -8 16 C-10.36693717 16.33500079 -10.36693717 16.33500079 -12 17 C-12 17.66 -12 18.32 -12 19 C-13.11375 19.3403125 -13.11375 19.3403125 -14.25 19.6875 C-17.13535136 20.80798164 -17.13535136 20.80798164 -18.7890625 23.34375 C-21.30123658 26.36190968 -23.71544224 27.88991153 -27.125 29.8125 C-28.17945312 30.41707031 -29.23390625 31.02164063 -30.3203125 31.64453125 C-33 33 -33 33 -35 33 C-35.10826289 30.5821288 -35.18739789 28.16912444 -35.25 25.75 C-35.28351562 25.06808594 -35.31703125 24.38617188 -35.3515625 23.68359375 C-35.41389267 20.47358993 -35.31617128 18.44659193 -33.4375 15.79296875 C-30.31824691 13.49851816 -27.10134177 11.49824962 -23.75 9.5625 C-22.39910761 8.77451995 -21.04884063 7.98546666 -19.69921875 7.1953125 C-18.73508057 6.63118652 -18.73508057 6.63118652 -17.75146484 6.05566406 C-15.6232637 4.77292894 -13.59898867 3.36019667 -11.5625 1.9375 C-7.56332581 -0.57502466 -4.66663569 -0.6120178 0 0 Z " fill="#65C853" transform="translate(97,41)"/>
<path d="M0 0 C4.17652882 2.43119019 8.10154632 5.14763139 12 8 C9.23933574 11.00931532 6.76948837 12.80929344 3.0625 14.5 C-0.77985925 16.25786451 -4.07220211 17.90840922 -7 21 C-7.53283832 23.93208267 -7.78920345 26.31981221 -7.8125 29.25 C-7.83763672 29.99507812 -7.86277344 30.74015625 -7.88867188 31.5078125 C-7.94733102 33.33797793 -7.9765808 35.16904453 -8 37 C-6.77023438 36.11634766 -6.77023438 36.11634766 -5.515625 35.21484375 C-3.89914063 34.08755859 -3.89914063 34.08755859 -2.25 32.9375 C-1.18265625 32.18339844 -0.1153125 31.42929688 0.984375 30.65234375 C4 29 4 29 8 30 C8 42.87 8 55.74 8 69 C7.67 69 7.34 69 7 69 C7 62.73 7 56.46 7 50 C2.80868542 52.62791939 2.80868542 52.62791939 -1.37646484 55.265625 C-5.77777778 58 -5.77777778 58 -8 58 C-7.79375 59.010625 -7.5875 60.02125 -7.375 61.0625 C-8 65 -8 65 -10.0859375 66.953125 C-20.27573612 74.06506656 -20.27573612 74.06506656 -25.3125 73.875 C-29.61736572 72.85350644 -32.31839686 71.42985807 -36 69 C-36.33 68.34 -36.66 67.68 -37 67 C-37.99 66.67 -38.98 66.34 -40 66 C-39.70458984 64.12719727 -39.70458984 64.12719727 -39 62 C-36.54638762 60.47454409 -34.21253381 59.18557625 -31.625 57.9375 C-30.26048904 57.26422156 -28.89841111 56.58598502 -27.5390625 55.90234375 C-26.93271973 55.60835693 -26.32637695 55.31437012 -25.70166016 55.01147461 C-23.73412345 53.84196176 -22.41645884 52.80770646 -21 51 C-20.49844978 48.7856493 -20.49844978 48.7856493 -20.48828125 46.33203125 C-20.45283203 45.43935547 -20.41738281 44.54667969 -20.38085938 43.62695312 C-20.35830078 42.69818359 -20.33574219 41.76941406 -20.3125 40.8125 C-20.27833984 39.87212891 -20.24417969 38.93175781 -20.20898438 37.96289062 C-20.12651782 35.64204607 -20.05736597 33.32157852 -20 31 C-20.66 30.67 -21.32 30.34 -22 30 C-21.67 29.67 -21.34 29.34 -21 29 C-20.92674832 26.13732433 -20.90761795 23.299281 -20.9375 20.4375 C-20.94201172 19.63119141 -20.94652344 18.82488281 -20.95117188 17.99414062 C-20.96299482 15.99606244 -20.98093086 13.99802217 -21 12 C-21.75925781 12.51691406 -22.51851562 13.03382812 -23.30078125 13.56640625 C-24.29464844 14.22511719 -25.28851563 14.88382813 -26.3125 15.5625 C-27.29863281 16.22378906 -28.28476563 16.88507813 -29.30078125 17.56640625 C-30.19152344 18.03949219 -31.08226563 18.51257813 -32 19 C-32.99 18.67 -33.98 18.34 -35 18 C-32.003237 15.3899161 -29.01254914 13.43698278 -25.5 11.625 C-22.39223658 9.97061848 -20.31919371 8.49236015 -18.1875 5.6875 C-17.465625 4.800625 -16.74375 3.91375 -16 3 C-14.68 3 -13.36 3 -12 3 C-12 2.34 -12 1.68 -12 1 C-8.15039952 -1.72680034 -4.28707824 -1.44963703 0 0 Z " fill="#FAFAFA" transform="translate(97,57)"/>
<path d="M0 0 C5.03135849 2.96916981 9.10563014 6.80891654 11.74609375 12.08984375 C12.44119302 19.49663929 12.35427472 25.99743271 7.74609375 32.08984375 C3.5388028 36.4883752 -0.85745901 39.36095903 -7.00390625 39.52734375 C-12.53128719 39.41320904 -16.07938072 37.62659455 -20.25390625 34.08984375 C-25.63459273 28.28436624 -26.71832622 23.87129466 -26.56640625 16.06640625 C-25.97632338 10.44586693 -23.4723883 6.98189906 -19.25390625 3.27734375 C-13.27277664 -1.08389659 -7.1977678 -2.90655095 0 0 Z " fill="#070707" transform="translate(334.25390625,36.91015625)"/>
<path d="M0 0 C19.20625 0 19.20625 0 23.484375 3.46875 C24.23460937 4.22671875 24.23460937 4.22671875 25 5 C25.52078125 5.4846875 26.0415625 5.969375 26.578125 6.46875 C30.49028194 10.85380504 30.68545261 15.34902398 30.4140625 21.0625 C29.55584204 27.15100739 27.41864087 31.21414175 22.5 34.9375 C15.48561892 39.64032368 8.75094248 38 0 38 C0 25.46 0 12.92 0 0 Z " fill="#060606" transform="translate(159,102)"/>
<path d="M0 0 C19.20625 0 19.20625 0 23.484375 3.46875 C24.23460937 4.22671875 24.23460937 4.22671875 25 5 C25.52078125 5.4846875 26.0415625 5.969375 26.578125 6.46875 C30.49028194 10.85380504 30.68545261 15.34902398 30.4140625 21.0625 C29.55584204 27.15100739 27.41864087 31.21414175 22.5 34.9375 C15.48561892 39.64032368 8.75094248 38 0 38 C0 25.46 0 12.92 0 0 Z " fill="#060606" transform="translate(159,37)"/>
<path d="M0 0 C3 1.375 3 1.375 5 3 C5 3.66 5 4.32 5 5 C5.65742187 5.23847656 6.31484375 5.47695313 6.9921875 5.72265625 C10.86294977 7.36647347 14.46478687 9.37404651 18.125 11.4375 C19.19814453 12.03014648 19.19814453 12.03014648 20.29296875 12.63476562 C20.98261719 13.02212891 21.67226562 13.40949219 22.3828125 13.80859375 C23.00559082 14.15720459 23.62836914 14.50581543 24.27001953 14.86499023 C26.15301812 16.1003925 27.57533622 17.25099844 29 19 C29.2172101 21.64996326 29.28351554 24.05076558 29.1875 26.6875 C29.16719727 27.7403418 29.16719727 27.7403418 29.14648438 28.81445312 C29.11120182 30.54329829 29.05739583 32.27174765 29 34 C25.38467538 32.25431469 22.02829601 30.43982734 18.75 28.125 C14.74961912 25.39715991 10.64227319 23.22850483 6.26171875 21.17578125 C4 20 4 20 1.95703125 18.40234375 C-1.12667225 16.192664 -4.28248279 16.09903222 -8 16 C-10.36693717 16.33500079 -10.36693717 16.33500079 -12 17 C-12 17.66 -12 18.32 -12 19 C-13.11375 19.3403125 -13.11375 19.3403125 -14.25 19.6875 C-17.13535136 20.80798164 -17.13535136 20.80798164 -18.7890625 23.34375 C-21.30123658 26.36190968 -23.71544224 27.88991153 -27.125 29.8125 C-28.17945312 30.41707031 -29.23390625 31.02164063 -30.3203125 31.64453125 C-33 33 -33 33 -35 33 C-35.10826289 30.5821288 -35.18739789 28.16912444 -35.25 25.75 C-35.28351562 25.06808594 -35.31703125 24.38617188 -35.3515625 23.68359375 C-35.41389267 20.47358993 -35.31617128 18.44659193 -33.4375 15.79296875 C-30.31824691 13.49851816 -27.10134177 11.49824962 -23.75 9.5625 C-22.39910761 8.77451995 -21.04884063 7.98546666 -19.69921875 7.1953125 C-18.73508057 6.63118652 -18.73508057 6.63118652 -17.75146484 6.05566406 C-15.6232637 4.77292894 -13.59898867 3.36019667 -11.5625 1.9375 C-7.56332581 -0.57502466 -4.66663569 -0.6120178 0 0 Z " fill="#FAA322" transform="translate(97,41)"/>
<path d="M0 0 C0.66 0 1.32 0 2 0 C2.23389694 3.20708688 2.37487528 6.41197595 2.5 9.625 C2.60054687 10.98044922 2.60054687 10.98044922 2.703125 12.36328125 C2.89529815 18.94521158 2.89529815 18.94521158 0.4362793 21.84228516 C-1.63437736 23.43078213 -3.71951796 24.73328903 -6 26 C-6.62374512 26.37624512 -7.24749023 26.75249023 -7.89013672 27.14013672 C-9.63613628 28.17641935 -11.40242665 29.15783651 -13.1875 30.125 C-17.44028501 32.43963053 -21.21766612 34.96886135 -25 38 C-29.19273474 38.97505459 -31.6493242 37.80671988 -35.1875 35.6875 C-36.44626953 34.87539062 -36.44626953 34.87539062 -37.73046875 34.046875 C-40.38954334 32.38217358 -43.05513112 30.84054588 -45.80078125 29.328125 C-46.65454346 28.85286377 -47.50830566 28.37760254 -48.38793945 27.88793945 C-50.11132289 26.93096955 -51.84027062 25.98394348 -53.57495117 25.04760742 C-59.57074287 21.67516322 -59.57074287 21.67516322 -61.5546875 18.5546875 C-62.07947735 15.54405102 -62.19216566 12.74353734 -62.125 9.6875 C-62.10695312 8.61886719 -62.08890625 7.55023438 -62.0703125 6.44921875 C-62.04710937 5.64097656 -62.02390625 4.83273438 -62 4 C-61.319375 4.5775 -60.63875 5.155 -59.9375 5.75 C-55.34283745 9.26931599 -50.88338449 12.28686249 -45 13 C-45 13.99 -45 14.98 -45 16 C-43.68 16.33 -42.36 16.66 -41 17 C-41 17.66 -41 18.32 -41 19 C-40.278125 19.28875 -39.55625 19.5775 -38.8125 19.875 C-36 21 -36 21 -33.5625 22.1875 C-30.11710658 23.27994182 -28.47939233 23.07058226 -25 22 C-22.60380042 20.55323799 -20.32379338 19.00811407 -18.05078125 17.375 C-16 16 -16 16 -13 15 C-13.2475 13.989375 -13.495 12.97875 -13.75 11.9375 C-13.79296875 10.01953125 -13.79296875 10.01953125 -13 8 C-9.24950753 5.17185086 -5.17851464 3.12222982 -1 1 C-0.67 0.67 -0.34 0.34 0 0 Z " fill="#3C71F3" transform="translate(102,107)"/>
<path d="M0 0 C5.15914926 -0.24799934 10.31480788 -0.42898392 15.47851562 -0.54931641 C17.23271109 -0.59948251 18.98649084 -0.6676401 20.73925781 -0.75439453 C32.54139281 -1.32373703 32.54139281 -1.32373703 37 0 C40.22290611 2.98893367 41.43160368 5.97695912 43 10 C43.66 10 44.32 10 45 10 C46.03435556 8.35443434 47.02763513 6.6829392 48 5 C51.19892724 0.19822761 51.19892724 0.19822761 54.68359375 -0.6640625 C57.18973941 -0.62851433 59.53537526 -0.44631032 62 0 C59.91713574 4.05557704 57.90946992 7.94351051 54.921875 11.4140625 C47.75575087 19.74017076 47.8147577 27.47592205 48 38 C45.36 38 42.72 38 40 38 C40.020625 36.82824219 40.04125 35.65648437 40.0625 34.44921875 C40.00874857 23.47808429 38.46952979 17.41412013 31 9 C29.96470227 7.35502694 28.95332353 5.6937981 28 4 C27.67 5.32 27.34 6.64 27 8 C24.03 8 21.06 8 18 8 C18 17.9 18 27.8 18 38 C15.03 38 12.06 38 9 38 C9 27.77 9 17.54 9 7 C6.03 7 3.06 7 0 7 C0 4.69 0 2.38 0 0 Z " fill="#0C0C0C" transform="translate(331,102)"/>
<path d="M0 0 C9 0 9 0 11.41796875 2.0546875 C12.00191406 2.98539062 12.58585938 3.91609375 13.1875 4.875 C13.83074219 5.86886719 14.47398437 6.86273438 15.13671875 7.88671875 C15.75160156 8.91410156 16.36648437 9.94148438 17 11 C17.60457031 11.97582031 18.20914063 12.95164062 18.83203125 13.95703125 C20.25411634 16.28498787 21.63185034 18.63994184 23 21 C23.33 14.07 23.66 7.14 24 0 C26.97 0 29.94 0 33 0 C33 12.54 33 25.08 33 38 C24 38 24 38 21.80078125 36.19580078 C21.30964844 35.37063965 20.81851563 34.54547852 20.3125 33.6953125 C19.75949219 32.80199219 19.20648438 31.90867188 18.63671875 30.98828125 C18.09660156 30.04339844 17.55648437 29.09851563 17 28.125 C16.14341797 26.71927734 16.14341797 26.71927734 15.26953125 25.28515625 C13.42173362 22.23475399 11.59537175 19.19074351 10 16 C9.67 23.26 9.34 30.52 9 38 C6.03 38 3.06 38 0 38 C0 25.46 0 12.92 0 0 Z " fill="#070707" transform="translate(227,102)"/>
<path d="M0 0 C18 0 18 0 23 3 C25.33772514 5.90200363 25.96474659 7.72300894 26.4375 11.4375 C25.92208357 15.63446239 24.63960991 17.7393054 22 21 C21.34 21.33 20.68 21.66 20 22 C21.62135878 25.75050576 24.00586728 28.57364221 26.625 31.6875 C31 36.89747634 31 36.89747634 31 38 C27.06775217 38.87466349 23.90544556 39.08294036 20 38 C15.81991844 34.45025898 12.90811571 29.59242568 10 25 C9.67 29.29 9.34 33.58 9 38 C6.03 38 3.06 38 0 38 C0 25.46 0 12.92 0 0 Z " fill="#060606" transform="translate(408,37)"/>
<path d="M0 0 C1.23556641 0.01740234 1.23556641 0.01740234 2.49609375 0.03515625 C3.32238281 0.04417969 4.14867187 0.05320312 5 0.0625 C5.63808594 0.07410156 6.27617187 0.08570312 6.93359375 0.09765625 C8.61278033 4.22089852 10.28485435 8.34693497 11.95068359 12.47558594 C12.51714418 13.8767457 13.08546754 15.277154 13.65576172 16.67675781 C14.47997188 18.70047523 15.29721756 20.72689224 16.11328125 22.75390625 C16.60554199 23.96884766 17.09780273 25.18378906 17.60498047 26.43554688 C19.00878446 30.30490738 20.00181153 34.09215258 20.93359375 38.09765625 C17.96359375 38.09765625 14.99359375 38.09765625 11.93359375 38.09765625 C10.67694397 35.19165364 9.93359375 33.30161041 9.93359375 30.09765625 C4.98359375 30.42765625 0.03359375 30.75765625 -5.06640625 31.09765625 C-6.05640625 33.40765625 -7.04640625 35.71765625 -8.06640625 38.09765625 C-11.03640625 38.09765625 -14.00640625 38.09765625 -17.06640625 38.09765625 C-14.75916293 29.81826271 -11.71826946 21.97557609 -8.44140625 14.03515625 C-7.93322751 12.7885607 -7.42541267 11.54181673 -6.91796875 10.29492188 C-2.75119858 0.13001884 -2.75119858 0.13001884 0 0 Z " fill="#060606" transform="translate(279.06640625,101.90234375)"/>
<path d="M0 0 C3.155625 -0.12375 6.31125 -0.2475 9.5625 -0.375 C10.5429126 -0.42962402 11.5233252 -0.48424805 12.53344727 -0.54052734 C17.23636367 -0.62921663 20.33968756 -0.28784156 24.10546875 2.67578125 C26.23513071 4.80953932 26.96244052 5.87690735 27.859375 8.81640625 C27.56400401 16.23232787 27.56400401 16.23232787 24.75 20.0625 C19.14078127 24.01444956 15.79639094 24.19989385 9 24 C9 28.62 9 33.24 9 38 C6.03 38 3.06 38 0 38 C0 25.46 0 12.92 0 0 Z " fill="#080808" transform="translate(350,37)"/>
<path d="M0 0 C7.26 0 14.52 0 22 0 C22 2.31 22 4.62 22 7 C17.71 7 13.42 7 9 7 C9 9.64 9 12.28 9 15 C13.29 15 17.58 15 22 15 C22 17.64 22 20.28 22 23 C17.71 23 13.42 23 9 23 C9 25.31 9 27.62 9 30 C13.29 30 17.58 30 22 30 C22 32.64 22 35.28 22 38 C14.74 38 7.48 38 0 38 C0 25.46 0 12.92 0 0 Z " fill="#080808" transform="translate(381,37)"/>
<path d="M0 0 C7.26 0 14.52 0 22 0 C22 2.31 22 4.62 22 7 C17.71 7 13.42 7 9 7 C9 9.64 9 12.28 9 15 C13.29 15 17.58 15 22 15 C22 17.64 22 20.28 22 23 C17.71 23 13.42 23 9 23 C9 25.31 9 27.62 9 30 C13.29 30 17.58 30 22 30 C22 32.64 22 35.28 22 38 C14.74 38 7.48 38 0 38 C0 25.46 0 12.92 0 0 Z " fill="#090909" transform="translate(193,37)"/>
<path d="M0 0 C3.3 0 6.6 0 10 0 C13.06404952 7.30851156 16.08208171 14.63184879 19 22 C20.66511252 19.50233122 21.64930594 17.56438538 22.69140625 14.8046875 C22.99626953 14.00675781 23.30113281 13.20882812 23.61523438 12.38671875 C23.92783203 11.55785156 24.24042969 10.72898437 24.5625 9.875 C25.18640521 8.22565383 25.81258727 6.57716654 26.44140625 4.9296875 C26.71670166 4.19991699 26.99199707 3.47014648 27.27563477 2.71826172 C28 1 28 1 29 0 C30.51928038 -0.07179964 32.04167482 -0.08392007 33.5625 -0.0625 C34.38878906 -0.05347656 35.21507812 -0.04445312 36.06640625 -0.03515625 C36.70449219 -0.02355469 37.34257812 -0.01195312 38 0 C37.32557795 4.34288494 35.80987413 8.18333679 34.09375 12.19921875 C33.80898804 12.87547806 33.52422607 13.55173737 33.23083496 14.24848938 C32.32492609 16.3967029 31.41248645 18.54207341 30.5 20.6875 C29.88630411 22.14110105 29.27301851 23.5948754 28.66015625 25.04882812 C24.22780155 35.54439689 24.22780155 35.54439689 23 38 C20.69 38 18.38 38 16 38 C9.95294654 25.63549637 5.04111003 12.79723925 0 0 Z " fill="#070707" transform="translate(216,37)"/>
<path d="M0 0 C2.78769825 0.81879762 5.32053874 1.85165946 8 3 C6.125 7.75 6.125 7.75 5 10 C-0.445 9.505 -0.445 9.505 -6 9 C-6.33 10.32 -6.66 11.64 -7 13 C-5.64455078 13.68835938 -5.64455078 13.68835938 -4.26171875 14.390625 C-3.0700523 15.00991623 -1.87866034 15.62973585 -0.6875 16.25 C0.48425781 16.85328125 1.65601563 17.4565625 2.86328125 18.078125 C5.80645668 19.88141555 7.33855518 21.02348932 9 24 C9.41259969 27.78216379 9.32517815 30.24695586 7.8125 33.75 C5.05786488 37.16954704 2.11692151 38.62769283 -2 40 C-8.15724991 40.52180084 -12.93459773 39.77694584 -18 36 C-18.495 34.515 -18.495 34.515 -19 33 C-17.5625 30.3125 -17.5625 30.3125 -16 28 C-15.154375 28.309375 -14.30875 28.61875 -13.4375 28.9375 C-9.9502146 30.01538821 -6.61822465 30.56581304 -3 31 C-2.34 29.68 -1.68 28.36 -1 27 C-1.50789063 26.69707031 -2.01578125 26.39414063 -2.5390625 26.08203125 C-13.92328398 19.15343203 -13.92328398 19.15343203 -16 15 C-16.70114489 7.87169364 -16.70114489 7.87169364 -13.6875 4.125 C-8.98984066 0.41057169 -5.94036607 -0.72546064 0 0 Z " fill="#080808" transform="translate(320,101)"/>
<path d="M0 0 C1.91893686 0.72386942 3.81021223 1.52022489 5.6953125 2.328125 C4.8828125 5.265625 4.8828125 5.265625 3.6953125 8.328125 C2.7053125 8.658125 1.7153125 8.988125 0.6953125 9.328125 C0.0353125 8.998125 -0.6246875 8.668125 -1.3046875 8.328125 C-3.6376741 8.28790109 -5.97175416 8.28492253 -8.3046875 8.328125 C-8.22174477 10.73686675 -8.22174477 10.73686675 -7.3046875 13.328125 C-4.89513253 15.09319474 -4.89513253 15.09319474 -1.9296875 16.390625 C1.92395914 18.22593692 4.55839386 19.5474228 6.6953125 23.328125 C7.05859375 25.328125 7.05859375 25.328125 7.0078125 27.328125 C7.00394531 27.988125 7.00007813 28.648125 6.99609375 29.328125 C6.52097808 32.48733568 5.6168748 34.61209099 3.06640625 36.59375 C-2.0973886 39.22259102 -6.52829648 40.34099912 -12.3046875 39.328125 C-15.19908359 38.32584257 -17.86127087 37.1918535 -20.3046875 35.328125 C-20.7996875 33.843125 -20.7996875 33.843125 -21.3046875 32.328125 C-19.8671875 29.640625 -19.8671875 29.640625 -18.3046875 27.328125 C-16.10190346 27.80015015 -14.41903498 28.2571507 -12.4921875 29.453125 C-9.26750006 30.74299998 -6.64656132 29.97079304 -3.3046875 29.328125 C-3.3046875 28.008125 -3.3046875 26.688125 -3.3046875 25.328125 C-4.05234375 24.95300781 -4.8 24.57789062 -5.5703125 24.19140625 C-16.0390591 18.75149473 -16.0390591 18.75149473 -18.3046875 14.328125 C-18.97389077 10.71442734 -19.0648022 8.49610613 -17.0234375 5.359375 C-12.14033203 -0.48120213 -7.55929165 -2.2037257 0 0 Z " fill="#080808" transform="translate(461.3046875,36.671875)"/>
<path d="M0 0 C6.93 0 13.86 0 21 0 C21 2.31 21 4.62 21 7 C16.71 7 12.42 7 8 7 C8 9.64 8 12.28 8 15 C12.29 15 16.58 15 21 15 C21 17.64 21 20.28 21 23 C16.71 23 12.42 23 8 23 C8 25.31 8 27.62 8 30 C12.62 30 17.24 30 22 30 C22 32.64 22 35.28 22 38 C14.74 38 7.48 38 0 38 C0 25.46 0 12.92 0 0 Z " fill="#060606" transform="translate(257,37)"/>
<path d="M0 0 C3.54607568 -0.7193883 6.4810356 -0.93207697 10 0 C13.29400689 3.29926889 15.66392421 6.98038356 18 11 C18.38929688 10.2059375 18.77859375 9.411875 19.1796875 8.59375 C20.92368609 5.41115349 22.55756479 2.69140048 25 0 C28.50807896 -0.95212012 31.45886604 -0.70537678 35 0 C33.7306273 3.86614657 31.79501057 6.66019922 29.31787109 9.86108398 C22.43357338 18.9699328 21.56338515 26.78927174 22 38 C19.03 38 16.06 38 13 38 C13.06703125 36.90945312 13.1340625 35.81890625 13.203125 34.6953125 C13.50730394 21.55243126 9.12049213 13.77646528 1.08569336 3.59375 C0 2 0 2 0 0 Z " fill="#060606" transform="translate(190,102)"/>
<path d="M0 0 C3 1.375 3 1.375 5 3 C5 3.66 5 4.32 5 5 C5.65742187 5.23847656 6.31484375 5.47695313 6.9921875 5.72265625 C10.86294977 7.36647347 14.46478687 9.37404651 18.125 11.4375 C19.19814453 12.03014648 19.19814453 12.03014648 20.29296875 12.63476562 C20.98261719 13.02212891 21.67226562 13.40949219 22.3828125 13.80859375 C23.00559082 14.15720459 23.62836914 14.50581543 24.27001953 14.86499023 C26.15301812 16.1003925 27.57533622 17.25099844 29 19 C29.2172101 21.64996326 29.28351554 24.05076558 29.1875 26.6875 C29.16719727 27.7403418 29.16719727 27.7403418 29.14648438 28.81445312 C29.11120182 30.54329829 29.05739583 32.27174765 29 34 C25.38467538 32.25431469 22.02829601 30.43982734 18.75 28.125 C14.74961912 25.39715991 10.64227319 23.22850483 6.26171875 21.17578125 C4 20 4 20 1.95703125 18.40234375 C-1.12667225 16.192664 -4.28248279 16.09903222 -8 16 C-10.36693717 16.33500079 -10.36693717 16.33500079 -12 17 C-12 17.66 -12 18.32 -12 19 C-12.66 18.67 -13.32 18.34 -14 18 C-12.8125 16.01953125 -12.8125 16.01953125 -11 14 C-8.625 13.57421875 -8.625 13.57421875 -6 13.6875 C-4.700625 13.72423828 -4.700625 13.72423828 -3.375 13.76171875 C-1 14 -1 14 2 15 C2.33 14.01 2.66 13.02 3 12 C4.134375 11.87625 5.26875 11.7525 6.4375 11.625 C7.613125 11.41875 8.78875 11.2125 10 11 C10.33 10.34 10.66 9.68 11 9 C8.525 8.505 8.525 8.505 6 8 C6 7.34 6 6.68 6 6 C5.34 6 4.68 6 4 6 C4 5.34 4 4.68 4 4 C2.68 4 1.36 4 0 4 C0 3.34 0 2.68 0 2 C-2.97 2 -5.94 2 -9 2 C-9.66 3.32 -10.32 4.64 -11 6 C-16.05067568 9.18412162 -16.05067568 9.18412162 -19.1953125 8.57421875 C-19.79085937 8.38472656 -20.38640625 8.19523437 -21 8 C-7.21149084 -1.41654284 -7.21149084 -1.41654284 0 0 Z " fill="#F9A622" transform="translate(97,41)"/>
<path d="M0 0 C2.97 0 5.94 0 9 0 C9 9.9 9 19.8 9 30 C13.29 30 17.58 30 22 30 C22 32.64 22 35.28 22 38 C14.74 38 7.48 38 0 38 C0 25.46 0 12.92 0 0 Z " fill="#090909" transform="translate(283,37)"/>
<path d="M0 0 C4.11819914 0.45004996 7.04302925 2.06199074 10.51171875 4.17578125 C11.12724609 4.53220703 11.74277344 4.88863281 12.37695312 5.25585938 C18.38756066 8.804918 18.38756066 8.804918 20.32421875 11.36328125 C20.66479492 14.09057617 20.66479492 14.09057617 20.6171875 17.34375 C20.60751953 18.50712891 20.59785156 19.67050781 20.58789062 20.86914062 C20.56275391 22.08408203 20.53761719 23.29902344 20.51171875 24.55078125 C20.49141602 26.3905957 20.49141602 26.3905957 20.47070312 28.26757812 C20.43530616 31.29991789 20.38592635 34.33138121 20.32421875 37.36328125 C19.99421875 37.36328125 19.66421875 37.36328125 19.32421875 37.36328125 C19.17984375 36.47640625 19.03546875 35.58953125 18.88671875 34.67578125 C16.62839118 29.88812679 12.98885265 28.53243199 8.32421875 26.36328125 C8.32421875 23.39328125 8.32421875 20.42328125 8.32421875 17.36328125 C7.64359375 17.11578125 6.96296875 16.86828125 6.26171875 16.61328125 C4.80765625 15.99453125 4.80765625 15.99453125 3.32421875 15.36328125 C2.71191406 15.12996094 2.09960938 14.89664063 1.46875 14.65625 C-0.57996313 13.73116098 -2.05592936 12.93101994 -3.67578125 11.36328125 C-4.6897789 8.35347869 -5.02345945 5.52288317 -4.67578125 2.36328125 C-2.67578125 0.36328125 -2.67578125 0.36328125 0 0 Z " fill="#4777EE" transform="translate(31.67578125,64.63671875)"/>
<path d="M0 0 C8.91 0 17.82 0 27 0 C26.67 2.31 26.34 4.62 26 7 C23.03 7 20.06 7 17 7 C17 17.23 17 27.46 17 38 C14.36 38 11.72 38 9 38 C9 27.77 9 17.54 9 7 C6.03 7 3.06 7 0 7 C0 4.69 0 2.38 0 0 Z " fill="#000000" transform="translate(331,102)"/>
<path d="M0 0 C2.77630426 0.03579762 4.62564805 0.06481414 7.0234375 1.49609375 C9.55926405 4.2004868 10.56969604 6.83142072 10.75 10.4375 C10.49144576 14.29365181 9.35300726 17.16615537 7.25 20.4375 C3.57705125 22.8861325 0.51731035 23.26933438 -3.75 22.4375 C-6.96954645 19.90296343 -8.45432435 18.32452695 -9.75 14.4375 C-10.28973359 8.71632393 -9.28865525 5.94124305 -5.75 1.4375 C-4.10710804 -0.20539196 -2.26039721 0.11034483 0 0 Z " fill="#F7F7F7" transform="translate(326.75,44.5625)"/>
<path d="M0 0 C0.0269501 2.93756119 0.04681474 5.87487555 0.0625 8.8125 C0.07087891 9.64587891 0.07925781 10.47925781 0.08789062 11.33789062 C0.09111328 12.14033203 0.09433594 12.94277344 0.09765625 13.76953125 C0.10289307 14.50792236 0.10812988 15.24631348 0.11352539 16.00708008 C-0.06670488 19.17099333 -0.72304184 20.73169678 -3 22.9375 C-5.57492015 24.7077576 -7.84457715 25.89542795 -10.6875 27.12890625 C-11.49574219 27.48154541 -12.30398437 27.83418457 -13.13671875 28.19750977 C-13.75160156 28.46233154 -14.36648437 28.72715332 -15 29 C-17.2299141 12.0060942 -17.2299141 12.0060942 -13.64208984 7.16943359 C-10.36887164 4.31892497 -4.49558685 0 0 0 Z " fill="#F24A2D" transform="translate(77,68)"/>
<path d="M0 0 C0.66 0 1.32 0 2 0 C2.14546783 3.24952748 2.2341168 6.49821713 2.3125 9.75 C2.35439453 10.67039062 2.39628906 11.59078125 2.43945312 12.5390625 C2.562838 19.34990772 2.562838 19.34990772 -0.29296875 22.6484375 C-3.95324522 24.47593485 -6.09425807 24.01259976 -10 23 C-10.99 22.34 -11.98 21.68 -13 21 C-13 20.01 -13 19.02 -13 18 C-13.66 17.67 -14.32 17.34 -15 17 C-14.969608 13.64928242 -14.51143167 11.00855957 -13 8 C-9.2527402 5.13009581 -5.21941162 3.08795627 -1 1 C-0.67 0.67 -0.34 0.34 0 0 Z " fill="#1C4699" transform="translate(102,107)"/>
<path d="M0 0 C1.5164736 14.03580563 1.5164736 14.03580563 -2.05078125 18.65625 C-8.34077696 23.20368393 -8.34077696 23.20368393 -12.83203125 22.65234375 C-13.54746094 22.43707031 -14.26289062 22.22179687 -15 22 C-15.82555117 17.43477258 -16.11005552 13.53145951 -15 9 C-11.79162509 5.13281861 -5.11102752 0 0 0 Z " fill="#68C858" transform="translate(104,88)"/>
<path d="M0 0 C6 0 6 0 8.8125 2.375 C12.19358768 6.43230521 12.35830199 8.71504561 12 14 C10.34830373 17.63373178 8.50361272 20.04209877 5 22 C3.35 22 1.7 22 0 22 C0 14.74 0 7.48 0 0 Z " fill="#FAFAFA" transform="translate(168,110)"/>
<path d="M0 0 C6 0 6 0 8.8125 2.375 C12.19358768 6.43230521 12.35830199 8.71504561 12 14 C10.34830373 17.63373178 8.50361272 20.04209877 5 22 C3.35 22 1.7 22 0 22 C0 14.74 0 7.48 0 0 Z " fill="#FAFAFA" transform="translate(168,45)"/>
<path d="M0 0 C2.87817264 0.18719822 4.17282002 0.33446547 6.5625 2 C7.96589324 5.83594153 7.73303606 9.52320821 7.5 13.5625 C5.85 14.2225 4.2 14.8825 2.5 15.5625 C2.5 16.2225 2.5 16.8825 2.5 17.5625 C-4.125 16.8125 -4.125 16.8125 -7.5 14.5625 C-8.32651427 10.43803171 -7.78205176 6.48386908 -6.5625 2.5 C-4.13563752 0.2202201 -3.24644026 0.16892047 0 0 Z " fill="#77CC66" transform="translate(116.5,122.4375)"/>
<path d="M0 0 C3.3935267 1.13117557 5.22042031 2.19561121 7.625 4.875 C8.3488508 7.69512273 8.34593194 10.05471423 7.625 12.875 C5.4375 15.4375 5.4375 15.4375 2.625 16.875 C-0.64005481 16.875 -2.02165442 16.14000918 -4.625 14.1875 C-6.78697374 11.33060613 -7.22649673 9.43907856 -7.375 5.875 C-6.13143435 2.14430305 -4.23558019 -0.22292527 0 0 Z " fill="#4D7AF1" transform="translate(49.375,49.125)"/>
<path d="M0 0 C0.66 0.33 1.32 0.66 2 1 C1.50886719 1.54140625 1.01773438 2.0828125 0.51171875 2.640625 C-1.3667612 5.57241283 -1.31060725 7.30299691 -1.1875 10.75 C-1.14689453 12.22726563 -1.14689453 12.22726563 -1.10546875 13.734375 C-1.07066406 14.48203125 -1.03585938 15.2296875 -1 16 C3.95 14.515 3.95 14.515 9 13 C9.33 13.66 9.66 14.32 10 15 C6.9700181 17.73675784 4.02785205 19.5355779 0.30859375 21.140625 C-0.49908447 21.49157227 -1.3067627 21.84251953 -2.13891602 22.20410156 C-2.75307373 22.46674805 -3.36723145 22.72939453 -4 23 C-4.11608726 19.72946483 -4.18720711 16.4594582 -4.25 13.1875 C-4.28351562 12.25873047 -4.31703125 11.32996094 -4.3515625 10.37304688 C-4.36445312 9.48037109 -4.37734375 8.58769531 -4.390625 7.66796875 C-4.41157227 6.84578857 -4.43251953 6.0236084 -4.45410156 5.17651367 C-4 3 -4 3 -1.97558594 1.20825195 C-0.9976709 0.61016724 -0.9976709 0.61016724 0 0 Z " fill="#D36F65" transform="translate(66,74)"/>
<path d="M0 0 C0.33 0 0.66 0 1 0 C1.33 4.29 1.66 8.58 2 13 C6.19075691 12.16184862 8.28073843 11.49330151 11.8125 9.4375 C12.60269531 8.98246094 13.39289063 8.52742188 14.20703125 8.05859375 C14.79871094 7.70925781 15.39039062 7.35992187 16 7 C17.20029908 9.40059817 17.11459743 10.89360649 17.09765625 13.5703125 C17.09443359 14.46621094 17.09121094 15.36210938 17.08789062 16.28515625 C17.07951172 17.22230469 17.07113281 18.15945312 17.0625 19.125 C17.05798828 20.06988281 17.05347656 21.01476562 17.04882812 21.98828125 C17.03702357 24.32558387 17.02055759 26.66276061 17 29 C16.67 29 16.34 29 16 29 C16 22.73 16 16.46 16 10 C11.84950464 12.6666038 11.84950464 12.6666038 7.71362305 15.35571289 C6.1886836 16.31496803 4.59392987 17.16035824 3 18 C2.01 17.67 1.02 17.34 0 17 C0 11.39 0 5.78 0 0 Z " fill="#B4D2CA" transform="translate(88,97)"/>
<path d="M0 0 C5.625 -0.25 5.625 -0.25 9 2 C9.4375 4.4375 9.4375 4.4375 9 7 C7.3125 8.8125 7.3125 8.8125 5 10 C3.35 10 1.7 10 0 10 C0 6.7 0 3.4 0 0 Z " fill="#F9F9F9" transform="translate(359,44)"/>
<path d="M0 0 C0.33 0 0.66 0 1 0 C1 5.28 1 10.56 1 16 C2.8975 14.659375 4.795 13.31875 6.75 11.9375 C9.984375 9.65234375 9.984375 9.65234375 13 8 C14.32 8.33 15.64 8.66 17 9 C17 14.28 17 19.56 17 25 C16.67 25 16.34 25 16 25 C16 20.05 16 15.1 16 10 C11.38 12.97 6.76 15.94 2 19 C0 17 0 17 -0.1953125 13.0859375 C-0.18200376 11.51550649 -0.15813602 9.94513779 -0.125 8.375 C-0.11597656 7.57320313 -0.10695313 6.77140625 -0.09765625 5.9453125 C-0.07406223 3.96341477 -0.03819065 1.98167019 0 0 Z " fill="#C4E7BE" transform="translate(88,78)"/>
<path d="M0 0 C0 6.6 0 13.2 0 20 C-0.33 20 -0.66 20 -1 20 C-1.33 17.03 -1.66 14.06 -2 11 C-2.99 11.495 -2.99 11.495 -4 12 C-4 10.68 -4 9.36 -4 8 C-4.99 8.33 -5.98 8.66 -7 9 C-9.6875 8.5625 -9.6875 8.5625 -12 8 C-9.62567936 5.37575087 -7.05729109 3.75794238 -4 2 C-1 0 -1 0 0 0 Z " fill="#274992" transform="translate(77,88)"/>
<path d="M0 0 C0.99 0.495 0.99 0.495 2 1 C2 8.59 2 16.18 2 24 C2.66 24 3.32 24 4 24 C4.66 24.99 5.32 25.98 6 27 C5.67 27.99 5.34 28.98 5 30 C2.53051758 28.37988281 2.53051758 28.37988281 0 26 C-0.56762695 23.15917969 -0.56762695 23.15917969 -0.48828125 19.921875 C-0.47216797 18.76171875 -0.45605469 17.6015625 -0.43945312 16.40625 C-0.39755859 15.1996875 -0.35566406 13.993125 -0.3125 12.75 C-0.28994141 11.52796875 -0.26738281 10.3059375 -0.24414062 9.046875 C-0.18521758 6.03001498 -0.10299265 3.01562485 0 0 Z " fill="#87CD7B" transform="translate(115,86)"/>
<path d="M0 0 C6.4 -0.36923077 6.4 -0.36923077 9.4375 1.5 C9.953125 1.995 10.46875 2.49 11 3 C10.01 3.66 9.02 4.32 8 5 C6.80767387 7.05003955 6.80767387 7.05003955 6 9 C5.01 8.67 4.02 8.34 3 8 C2.34 8.66 1.68 9.32 1 10 C-0.1577506 6.52674819 -0.06866652 3.63932552 0 0 Z " fill="#60CA4B" transform="translate(111,125)"/>
<path d="M0 0 C2.875 -0.125 2.875 -0.125 6 0 C8 2 8 2 8.25 4.5 C8 7 8 7 6 9 C2.875 9.125 2.875 9.125 0 9 C0 6.03 0 3.06 0 0 Z " fill="#F9F9F9" transform="translate(417,44)"/>
<path d="M0 0 C3 1.375 3 1.375 5 3 C5 3.66 5 4.32 5 5 C5.66 5.33 6.32 5.66 7 6 C6.01 6 5.02 6 4 6 C4 5.34 4 4.68 4 4 C2.68 4 1.36 4 0 4 C0 3.34 0 2.68 0 2 C-2.97 2 -5.94 2 -9 2 C-9.66 3.32 -10.32 4.64 -11 6 C-16.05067568 9.18412162 -16.05067568 9.18412162 -19.1953125 8.57421875 C-19.79085937 8.38472656 -20.38640625 8.19523437 -21 8 C-7.21149084 -1.41654284 -7.21149084 -1.41654284 0 0 Z " fill="#EFBD6D" transform="translate(97,41)"/>
<path d="M0 0 C4.00872804 1.00218201 7.01650378 3.34029711 10.28515625 5.7578125 C12.44065639 7.31919984 14.69460586 8.67265186 17 10 C16.67 11.32 16.34 12.64 16 14 C15.34 13.67 14.68 13.34 14 13 C14 12.01 14 11.02 14 10 C13.4225 9.71253906 12.845 9.42507812 12.25 9.12890625 C10.82907497 8.41597685 9.41184749 7.69558512 8 6.96484375 C7.34 6.62582031 6.68 6.28679687 6 5.9375 C5.01 5.42509766 5.01 5.42509766 4 4.90234375 C2.01310263 4.00591154 0.12615708 3.46035098 -2 3 C-2 3.66 -2 4.32 -2 5 C-3.65 5 -5.3 5 -7 5 C-4.702779 3.25728062 -2.40133271 1.60088848 0 0 Z " fill="#81BD42" transform="translate(109,65)"/>
<path d="M0 0 C2.44839588 3.67259383 4 6.54648201 4 11 C1.36 11 -1.28 11 -4 11 C-3.5247412 9.35303396 -3.04468109 7.70745272 -2.5625 6.0625 C-2.29566406 5.14597656 -2.02882813 4.22945313 -1.75390625 3.28515625 C-1 1 -1 1 0 0 Z " fill="#E0E0E0" transform="translate(281,114)"/>
<path d="M0 0 C0.66 0.33 1.32 0.66 2 1 C2 7.27 2 13.54 2 20 C1.67 20 1.34 20 1 20 C0.67 14.39 0.34 8.78 0 3 C-1.753125 4.175625 -3.50625 5.35125 -5.3125 6.5625 C-8.30078125 8.56640625 -8.30078125 8.56640625 -11 10 C-11.99 9.67 -12.98 9.34 -14 9 C-9.80022081 5.3421278 -5.12798061 2.20634136 0 0 Z " fill="#F5CFB8" transform="translate(76,66)"/>
<path d="M0 0 C8.12065137 -0.61287935 8.12065137 -0.61287935 11.0625 1.4375 C12.46589324 5.27344153 12.23303606 8.96070821 12 13 C10.35 13.66 8.7 14.32 7 15 C7 14.34 7 13.68 7 13 C7.99 13 8.98 13 10 13 C10 10.36 10 7.72 10 5 C6.46588679 2.87953208 3.05606165 2.46800711 -1 2 C-0.67 1.34 -0.34 0.68 0 0 Z " fill="#8CCD81" transform="translate(112,123)"/>
<path d="M0 0 C0.33 0 0.66 0 1 0 C1.13277344 0.97582031 1.26554687 1.95164062 1.40234375 2.95703125 C1.57894531 4.22933594 1.75554688 5.50164062 1.9375 6.8125 C2.11152344 8.07707031 2.28554688 9.34164062 2.46484375 10.64453125 C2.90392455 13.98321703 2.90392455 13.98321703 4 17 C6.31 17 8.62 17 11 17 C11 17.99 11 18.98 11 20 C11.99 20.33 12.98 20.66 14 21 C14 21.66 14 22.32 14 23 C3.08651199 19.03145891 3.08651199 19.03145891 0.80078125 14.7578125 C-0.11476402 11.60476391 -0.19703588 8.9651327 -0.125 5.6875 C-0.10695312 4.61886719 -0.08890625 3.55023438 -0.0703125 2.44921875 C-0.04710937 1.64097656 -0.02390625 0.83273438 0 0 Z " fill="#7291E1" transform="translate(40,111)"/>
<path d="M0 0 C1.65 0 3.3 0 5 0 C5 0.66 5 1.32 5 2 C5.99 2 6.98 2 8 2 C8 2.66 8 3.32 8 4 C9.32 4 10.64 4 12 4 C12 4.66 12 5.32 12 6 C12.66 6 13.32 6 14 6 C14.33 7.32 14.66 8.64 15 10 C9.66471583 7.53756115 4.72152118 4.50441794 0 1 C0 0.67 0 0.34 0 0 Z " fill="#D6B02A" transform="translate(111,65)"/>
<path d="M0 0 C0.66 0.66 1.32 1.32 2 2 C-0.95664519 3.4783226 -3.74229737 3.06032783 -7 3 C-7 5.97 -7 8.94 -7 12 C-7.99 11.01 -8.98 10.02 -10 9 C-9.93232476 5.21018637 -9.78500575 2.89714943 -7.25 0 C-4.36699859 -1.28133396 -2.95378439 -1.01050518 0 0 Z " fill="#6383DE" transform="translate(52,50)"/>
<path d="M0 0 C1.32 0.33 2.64 0.66 4 1 C1.32337671 3.51917486 -0.31506879 4.9001142 -4 5.4375 C-7.32304882 4.95288871 -9.27589324 3.92289889 -12 2 C-9.47524538 0.73762269 -7.68799534 0.90143596 -4.875 0.9375 C-3.96492188 0.94652344 -3.05484375 0.95554688 -2.1171875 0.96484375 C-1.41851562 0.97644531 -0.71984375 0.98804688 0 1 C0 0.67 0 0.34 0 0 Z " fill="#6E8EE7" transform="translate(78,140)"/>
<path d="M0 0 C0 5.94 0 11.88 0 18 C-0.33 18 -0.66 18 -1 18 C-1.33 13.38 -1.66 8.76 -2 4 C-2.99 4.66 -3.98 5.32 -5 6 C-7.1875 5.625 -7.1875 5.625 -9 5 C-7.68921847 4.16396622 -6.37632511 3.3312426 -5.0625 2.5 C-3.96615234 1.80390625 -3.96615234 1.80390625 -2.84765625 1.09375 C-1 0 -1 0 0 0 Z " fill="#DE6044" transform="translate(77,68)"/>
<path d="M0 0 C0.33 0 0.66 0 1 0 C1.36923077 5.41538462 1.36923077 5.41538462 -0.5 8.375 C-0.995 8.91125 -1.49 9.4475 -2 10 C-5.375 9.6875 -5.375 9.6875 -9 9 C-9.66 8.01 -10.32 7.02 -11 6 C-8.36 6.66 -5.72 7.32 -3 8 C-3 7.34 -3 6.68 -3 6 C-2.34 5.67 -1.68 5.34 -1 5 C-0.34444881 2.47266765 -0.34444881 2.47266765 0 0 Z " fill="#97D08B" transform="translate(140,115)"/>
<path d="M0 0 C-0.3125 1.9375 -0.3125 1.9375 -1 4 C-1.99 4.33 -2.98 4.66 -4 5 C-4.33 8.63 -4.66 12.26 -5 16 C-5.33 16 -5.66 16 -6 16 C-6.1080023 13.89695523 -6.18558987 11.79233091 -6.25 9.6875 C-6.31960937 7.92986328 -6.31960937 7.92986328 -6.390625 6.13671875 C-6 3 -6 3 -4.109375 1.08203125 C-2 0 -2 0 0 0 Z " fill="#71C266" transform="translate(95,94)"/>
<path d="M0 0 C1.65 0.33 3.3 0.66 5 1 C1.18765077 4.3502463 -2.33285711 6.16974789 -7 8 C-7 7.01 -7 6.02 -7 5 C-5.68 5 -4.36 5 -3 5 C-3 4.34 -3 3.68 -3 3 C-2.01 3 -1.02 3 0 3 C0 2.01 0 1.02 0 0 Z " fill="#4B76DE" transform="translate(93,130)"/>
<path d="M0 0 C0.33 0.66 0.66 1.32 1 2 C3.02463255 2.65213292 3.02463255 2.65213292 5 3 C5 3.66 5 4.32 5 5 C7.475 5.99 7.475 5.99 10 7 C10 7.33 10 7.66 10 8 C8.35 8 6.7 8 5 8 C5 7.34 5 6.68 5 6 C2.525 5.01 2.525 5.01 0 4 C0 2.68 0 1.36 0 0 Z " fill="#648BE7" transform="translate(56,121)"/>
<path d="M0 0 C1.299375 0.02900391 1.299375 0.02900391 2.625 0.05859375 C3.49125 0.05988281 4.3575 0.06117187 5.25 0.0625 C8.00063053 0.56467103 8.8974894 1.3537533 10.625 3.49609375 C9.94953125 3.41230469 9.2740625 3.32851563 8.578125 3.2421875 C7.68609375 3.14035156 6.7940625 3.03851563 5.875 2.93359375 C4.99328125 2.82917969 4.1115625 2.72476563 3.203125 2.6171875 C0.74067549 2.50152699 -1.04038064 2.7597068 -3.375 3.49609375 C-3.375 4.15609375 -3.375 4.81609375 -3.375 5.49609375 C-4.035 5.16609375 -4.695 4.83609375 -5.375 4.49609375 C-3.05223669 0.63755602 -3.05223669 0.63755602 0 0 Z " fill="#F1AB3E" transform="translate(88.375,54.50390625)"/>
<path d="M0 0 C1.32 0 2.64 0 4 0 C4 0.99 4 1.98 4 3 C0.7 3.66 -2.6 4.32 -6 5 C-5.195625 4.360625 -4.39125 3.72125 -3.5625 3.0625 C-1.7249496 1.59396498 -1.7249496 1.59396498 0 0 Z " fill="#27519C" transform="translate(99,109)"/>
<path d="M0 0 C-3.1254959 2.64465038 -6.08788267 3.84414715 -10 5 C-10 4.01 -10 3.02 -10 2 C-8.68 2 -7.36 2 -6 2 C-6 1.34 -6 0.68 -6 0 C-3.50907189 -1.24546405 -2.58919267 -0.7767578 0 0 Z " fill="#345696" transform="translate(74,111)"/>
<path d="M0 0 C2.97 1.65 5.94 3.3 9 5 C9 5.99 9 6.98 9 8 C8.34 7.67 7.68 7.34 7 7 C7 6.67 7 6.34 7 6 C4.03 5.505 4.03 5.505 1 5 C0.67 3.35 0.34 1.7 0 0 Z " fill="#1A4AB0" transform="translate(41,91)"/>
<path d="M0 0 C3.37462715 0.54723683 5.08235 1.0549 8 3 C8 3.66 8 4.32 8 5 C8.66 5 9.32 5 10 5 C9.67 5.66 9.34 6.32 9 7 C7.4972763 6.02501855 5.99788037 5.04490611 4.5 4.0625 C3.6646875 3.51722656 2.829375 2.97195312 1.96875 2.41015625 C1.3190625 1.94480469 0.669375 1.47945312 0 1 C0 0.67 0 0.34 0 0 Z " fill="#F2BA69" transform="translate(99,58)"/>
<path d="M0 0 C0.99928333 2.698065 1.03624754 3.88010429 0.1875 6.6875 C-1 9 -1 9 -3 10 C-2.88637738 8.5199159 -2.75877092 7.04089926 -2.625 5.5625 C-2.55539063 4.73878906 -2.48578125 3.91507812 -2.4140625 3.06640625 C-2.27742188 2.38449219 -2.14078125 1.70257813 -2 1 C-1.34 0.67 -0.68 0.34 0 0 Z " fill="#25468F" transform="translate(91,114)"/>
<path d="M0 0 C2.6875 0.875 2.6875 0.875 5 2 C5 2.33 5 2.66 5 3 C2.69 3 0.38 3 -2 3 C-2 3.66 -2 4.32 -2 5 C-3.65 5 -5.3 5 -7 5 C-4.702779 3.25728062 -2.40133271 1.60088848 0 0 Z " fill="#90C15F" transform="translate(109,65)"/>
<path d="M0 0 C0.33 0.99 0.66 1.98 1 3 C1.99 3.33 2.98 3.66 4 4 C4 4.66 4 5.32 4 6 C-0.75 4.125 -0.75 4.125 -3 3 C-3 2.34 -3 1.68 -3 1 C-2.01 0.67 -1.02 0.34 0 0 Z " fill="#5580E5" transform="translate(50,128)"/>
<path d="M0 0 C1.98 0 3.96 0 6 0 C0.85714286 4.42857143 0.85714286 4.42857143 -3 5 C-3 4.34 -3 3.68 -3 3 C-2.01 3 -1.02 3 0 3 C0 2.01 0 1.02 0 0 Z " fill="#F3A739" transform="translate(70,66)"/>
<path d="M0 0 C0.66 0.33 1.32 0.66 2 1 C0.8125 3 0.8125 3 -1 5 C-3.6875 5.25 -3.6875 5.25 -6 5 C-4.06745228 2.9754262 -2.36841312 1.57894208 0 0 Z " fill="#F0B14F" transform="translate(74,50)"/>
<path d="M0 0 C1 3 1 3 1 5 C-1.91517292 3.92598892 -3.77810176 3.22189824 -6 1 C-4.7934375 1.0309375 -4.7934375 1.0309375 -3.5625 1.0625 C-1.06645115 1.29633621 -1.06645115 1.29633621 0 0 Z " fill="#77C969" transform="translate(127,115)"/>
<path d="M0 0 C2.02045442 0.60183749 4.02111039 1.27306096 6 2 C6.33 2.66 6.66 3.32 7 4 C4.69 3.67 2.38 3.34 0 3 C0 2.01 0 1.02 0 0 Z " fill="#F1AF49" transform="translate(116,54)"/>
</svg>
